<?xml version="1.0" encoding="UTF-8" standalone="no"?>
<svg version="1.1" xmlns="http://www.w3.org/2000/svg" width="120" height="120" viewBox="0 0 120 120">
  <rect fill="#ffffff" width="120" height="120" rx="26"/>
  <g transform="translate(42, 8) scale(0.36)">
    <path fill="#4c82ee" d="m 41.185056,230.29514 -2.956195,-0.9597 -3.530624,-1.92547 -3.530633,-1.92548 -2.580494,-2.90073 -2.580502,-2.90073 -2.406145,-5.5664 -2.406145,-5.56639 -0.02592,-82.34788 -0.02592,-82.34789 1.865595,-5.742387 1.434166,-5.968625 3.890768,-5.664292 6.047869,-4.080637 5.978803,-1.862157 5.978804,-1.862157 h 77.370767 77.37078 l 6.01583,1.636638 6.01584,1.636639 4.76316,3.956594 4.76317,3.956592 2.74653,5.848809 2.74652,5.848808 0.32791,80.895465 0.32791,80.89546 -1.76168,6.31144 -1.76166,6.31144 -3.69287,4.67457 -3.69286,4.67457 -4.89846,2.74729 -4.89847,2.7473 -81.96985,0.2195 -81.96983,0.2195 z m 151.175674,-36.78035 2.15686,-2.04718 V 126.96542 62.463206 l -1.41531,-1.484373 -1.41531,-1.484373 H 124.78003 57.873096 l -1.85338,1.943823 -1.853379,1.943824 v 63.340753 63.34074 l 1.836007,2.74919 1.836015,2.74919 h 66.182761 66.18275 z m -120.567651,-32.14786 -1.185629,-3.27062 1.313131,-4.173 1.313139,-4.17301 28.48749,0.33101 28.48748,0.33099 1.48104,3.24244 1.48106,3.24243 -1.28638,3.87019 -1.28638,3.87019 H 101.78837 72.978708 Z m 1.152546,-33.3358 -1.559721,-1.97106 v -4.09824 -4.09823 l 1.559721,-1.97106 1.559721,-1.97106 h 49.914154 49.91415 l 1.83602,2.74919 1.836,2.74918 v 2.89854 2.89852 l -1.22091,2.39264 -1.22093,2.39263 H 125.03459 74.505346 Z m 1.068203,-33.946282 -1.971823,-1.206735 -0.73059,-3.488674 -0.730581,-3.488666 1.198932,-3.30734 1.198942,-3.307331 h 51.292562 51.29256 l 1.22093,2.392633 1.22091,2.392632 v 2.898526 2.898534 l -1.836,2.749188 -1.83602,2.749193 -49.174,-0.0377 -49.173999,-0.0376 z"/>
  </g>
</svg>