<svg width="120" height="120" viewBox="0 0 120 120" xmlns="http://www.w3.org/2000/svg">
  <path
    fill="#4c82ee"
    d="m 12.5,106.5 -1.5,-0.5 -2,-1 -2,-1 -1.5,-1.5 L 4,101 2.5,97.5 1,94 V 60 V 26 l 1.5,-3.5 L 4,19 6.5,16.5 10,14.5 13.5,13 17,11.5 h 47 47 l 3.5,1 3.5,1 3,2.5 3,2.5 1.5,3.5 1.5,3.5 V 60 v 35 l -1,3.5 -1,3.5 -2.5,2.5 -2.5,2.5 -2.5,2 -3.5,1.5 -49,0.5 -49.5,-0.5 z m 91,-21 1,-1 V 60 V 25 l -1,-1 -1,-0.5 h -40 -40 l -1,1 -0.5,1 V 60 v 35 l 0.5,3.5 2,1 39,0.5 40,-0.5 z M 27.5,77.5 l -1,-2 1,-2.5 1,-2 h 17 17 l 1.5,1.5 0.5,2.5 -0.5,2.5 -1,2 -2.5,1 h -32 z m 0.5,-19 -1,-1.5 -0.5,-2.5 0.5,-2.5 1,-1 1,-1 h 31 31 l 1,1.5 1,1.5 v 1.5 1.5 l -1,1.5 -1,1.5 -3,0.5 h -57 z m 1,-19 -1.5,-1.5 -0.5,-2 -0.5,-2 1,-2 1.5,-2 5.5,-0.5 h 55 l 1,2 1,1.5 v 1.5 1.5 l -1,1.5 -1.5,1.5 h -29.5 -30 z"
  />
</svg>