<?xml version="1.0" encoding="UTF-8" standalone="no"?>
<svg version="1.1" id="weblify-logo" width="64" height="64" viewBox="0 0 64 64" xmlns="http://www.w3.org/2000/svg">
  <defs>
    <style>
      .logo-shape { fill: #4c82ee; }
      @media (prefers-color-scheme: dark) {
        .logo-shape { fill: #60a5fa; }
      }
    </style>
  </defs>
  <rect width="64" height="64" rx="12" fill="transparent"/>
  <path class="logo-shape" d="M10.5 58.8l-0.8-0.2-0.9-0.5-0.9-0.5-0.7-0.7-0.7-0.7-0.6-1.4-0.6-1.4V32.6l0.5-1.5 0.4-1.5 1-1.4 1.5-1 1.5-0.5h19.7l1.5 0.4 1.2 1 0.7 1.5v20.6l-0.4 1.6-0.9 1.2-1.2 0.7H10.5zm38.6-9.4l0.5-0.5V29.9l-0.4-0.4H31.9l-0.5 0.5v16.1l0.5 0.7h16.9zM21.4 41.6l-0.3-0.8 0.3-1h7.3l0.4 0.8-0.3 1h-7.4zm0.3-8.5l-0.4-0.5v-1l0.4-0.5h12.7l0.5 0.7v0.7l-0.3 0.6H21.7zm0.3-8.7l-0.5-0.3-0.2-0.9 0.3-0.8h13.1l0.3 0.6v0.7l-0.5 0.7H22z"/>
</svg>
